<svg width="49" height="48" viewBox="0 0 49 48" fill="none" xmlns="http://www.w3.org/2000/svg">
<g clip-path="url(#clip0_964_13135)">
<g clip-path="url(#clip1_964_13135)">
<path d="M30.1421 13.624H42.14V17.0693H30.1421V13.624Z" fill="#00A0C1"/>
<path d="M30.1421 22.2373H42.14V25.6826H30.1421V22.2373Z" fill="#00A0C1"/>
<path d="M30.1421 30.8506H42.14V34.2959H30.1421V30.8506Z" fill="#00A0C1"/>
<path d="M45.5679 5.01123H4.43235C3.52348 5.01214 2.65209 5.37542 2.00942 6.02135C1.36675 6.66727 1.0053 7.54307 1.00439 8.45655V39.4644C1.0053 40.3779 1.36675 41.2537 2.00942 41.8996C2.65209 42.5455 3.52348 42.9088 4.43235 42.9097H45.5679C46.4766 42.9084 47.3477 42.5449 47.9903 41.8991C48.6329 41.2533 48.9945 40.3777 48.9958 39.4644V8.45655C48.9949 7.54307 48.6335 6.66727 47.9908 6.02135C47.3481 5.37542 46.4767 5.01214 45.5679 5.01123ZM4.43235 8.45655H23.2861V39.4644H4.43235V8.45655ZM26.7141 39.4644V8.45655H45.5679L45.5713 39.4644H26.7141Z" fill="#00A0C1"/>
</g>
</g>
<defs>
<clipPath id="clip0_964_13135">
<rect width="48" height="48" fill="white" transform="translate(0.5)"/>
</clipPath>
<clipPath id="clip1_964_13135">
<rect width="48" height="37.92" fill="white" transform="translate(1 5)"/>
</clipPath>
</defs>
</svg>
